<svg width="51" height="46" viewBox="0 0 51 46" fill="none" xmlns="http://www.w3.org/2000/svg">
<path d="M34.5238 3.61856C31.6472 6.45678 30.7651 7.26221 30.5605 7.21108C30.4199 7.18551 29.8829 7.04488 29.3716 6.90424C27.8502 6.48235 25.843 6.31614 23.4139 6.40564C19.7319 6.54627 16.4462 7.18551 14.4773 8.15715L13.4545 8.65575L12.1633 7.72247C11.4473 7.21108 10.5013 6.54627 10.041 6.23944C9.58076 5.9326 8.35343 5.05046 7.29229 4.27059C5.29787 2.81312 4.76091 2.51907 4.54357 2.73641C4.33901 2.94097 4.37737 8.27221 4.59471 11.9286C4.90154 16.9914 5.23395 20.0981 5.80926 23.1792C5.94989 23.8824 6.11609 24.8285 6.1928 25.2887C6.26951 25.749 6.6147 26.9124 6.95989 27.8712L7.57356 29.6227L6.01382 30.5177C5.15724 31.0163 3.98104 31.7578 3.40573 32.1669C1.3346 33.6499 -0.289064 35.3375 0.0433393 35.6699C0.209541 35.8361 0.337389 35.7466 1.93548 34.3147C2.56193 33.765 3.62307 32.9596 4.28788 32.5121C5.80926 31.5021 7.76533 30.3898 7.91874 30.441C7.96988 30.4537 8.14887 30.6839 8.2895 30.9268L8.5452 31.3743L7.56077 32.5249C6.20559 34.0846 4.44129 36.7566 3.38016 38.8789C2.52358 40.5793 2.37016 41.0523 2.61307 41.1929C2.79206 41.308 3.06054 40.9117 4.03218 39.1602C5.528 36.4881 6.87039 34.5065 8.59634 32.4737L8.95431 32.0518L9.61912 32.8701C10.5652 34.059 12.1249 35.248 13.8637 36.1174C14.6819 36.5265 15.3595 36.8589 15.385 36.8717C15.4873 36.91 14.733 38.7127 13.7614 40.7455C12.7386 42.855 11.5752 45.6165 11.5752 45.8977C11.5752 45.9489 16.3055 46 22.0715 46H32.5805L32.5038 45.4503C32.4527 45.1562 32.2993 44.1973 32.1458 43.3152C31.7751 41.0523 31.7112 39.5565 31.9541 37.7794C32.0691 36.9484 32.1842 36.2069 32.2353 36.143C32.2737 36.079 32.6061 35.8745 32.9641 35.6827C35.3932 34.4682 37.7583 32.1541 38.7939 30.0191C39.0496 29.4949 39.2669 29.0346 39.2797 29.0091C39.3309 28.9324 40.75 29.7762 42.3225 30.8245C44.0868 32.0007 45.6977 33.2664 47.2318 34.6855C47.9222 35.3247 48.3441 35.6188 48.4208 35.5421C48.6254 35.3375 48.2418 34.7622 47.1551 33.6755C45.621 32.1413 43.1535 30.3131 40.5071 28.7406C39.9957 28.4465 39.5738 28.1908 39.5738 28.1781C39.5866 28.1781 39.7144 27.7562 39.8806 27.2703C40.2258 26.2348 40.0212 26.2731 42.1947 26.8996C43.8567 27.3854 46.4264 28.421 48.4464 29.4054C49.7377 30.0319 50.313 30.1597 50.313 29.8401C50.313 29.7378 50.1596 29.5332 49.9806 29.3926C49.5075 29.0219 46.925 27.7817 45.263 27.1425C43.8183 26.5672 40.9801 25.6723 40.6477 25.6723C40.3409 25.6723 40.3153 25.3654 40.5071 24.0486C40.865 21.7729 40.75 15.8791 40.2769 11.1616C39.7783 6.32893 39.5482 4.424 39.3181 3.23502C39.1775 2.53186 38.9985 1.52186 38.909 0.997689C38.7683 0.205035 38.7044 0.0388318 38.4871 0.000477568C38.2953 -0.0250919 37.2086 0.97212 34.5238 3.61856ZM33.5777 13.3478C36.5694 14.2171 38.4104 17.2982 37.7328 20.3154C37.3364 22.1181 36.2242 23.4988 34.4982 24.3554C33.5266 24.8285 33.4882 24.8412 32.0436 24.8412C30.3048 24.8285 29.5633 24.5983 28.336 23.6778C24.6284 20.8908 25.5745 14.997 29.998 13.3989C30.8674 13.0921 32.5933 13.0665 33.5777 13.3478ZM15.4745 15.3805C18.415 16.1476 20.3711 19.0498 19.9236 21.9775C19.2972 25.9791 15.0654 28.1908 11.4473 26.4266C7.76533 24.6111 6.99824 19.7146 9.9643 16.8763C10.399 16.4545 10.9871 15.9942 11.2939 15.8408C12.5468 15.2015 14.1066 15.0353 15.4745 15.3805ZM25.2676 27.59C25.5873 27.7689 25.5745 28.1141 25.2421 28.4721C24.9097 28.8301 24.475 28.9963 23.8997 28.9963C22.9153 28.9963 22.1482 28.3443 22.6084 27.884C22.928 27.5644 24.8202 27.3598 25.2676 27.59Z" fill="black"/>
<path d="M30.4966 14.3961C29.5633 14.7541 29.1798 15.0098 28.6173 15.6107C26.8018 17.5795 26.9297 20.405 28.9241 22.2204C29.8318 23.0514 30.7651 23.4094 32.0947 23.4094C32.9897 23.4222 33.2326 23.371 33.9485 23.0258C34.9457 22.5656 35.7512 21.7729 36.2242 20.8141C36.531 20.2004 36.5694 19.9575 36.5694 18.8964C36.5694 17.7841 36.531 17.6051 36.1603 16.838C35.6617 15.828 34.8562 15.0354 33.8462 14.5751C32.9002 14.1404 31.3532 14.0637 30.4966 14.3961Z" fill="black"/>
<path d="M12.5085 16.5695C11.23 17.0298 10.3223 17.8608 9.74696 19.1137C9.51684 19.6123 9.4657 19.9575 9.4657 20.9419C9.4657 21.9902 9.51684 22.2587 9.81089 22.8852C10.4373 24.2404 11.7286 25.2248 13.2883 25.5444C15.3211 25.9663 17.5968 24.7262 18.3511 22.7957C18.8113 21.6067 18.7858 20.2387 18.2616 19.1137C17.7758 18.0909 16.9576 17.2471 15.9476 16.7741C14.9759 16.3138 13.4929 16.2243 12.5085 16.5695Z" fill="black"/>
</svg>
